<svg width="79" height="79" viewBox="0 0 79 79" fill="none" xmlns="http://www.w3.org/2000/svg">
<path d="M10.6279 0.308594H68.6322C74.1551 0.308594 78.6322 4.78575 78.6322 10.3086V16.7883L62.1525 28.3242V22.7883C62.1525 19.4746 59.4662 16.7883 56.1525 16.7883H28.9183L40.2766 27.126L26.9329 40.4682L3.93745 19.7676C1.83082 17.8712 0.62793 15.1699 0.62793 12.3354V10.3086C0.62793 4.78575 5.10507 0.308594 10.6279 0.308594Z" fill="#8A54FF"/>
<path d="M68.6402 78.3139L10.6261 78.3144C5.1032 78.3144 0.625992 73.8372 0.625992 68.3144V61.8324L17.1078 50.2966V55.8324C17.1078 59.1461 19.7941 61.8324 23.1078 61.8324H50.342L39.1464 51.5424L52.4799 38.2142L75.3413 58.8542C77.4414 60.7503 78.64 63.4472 78.6401 66.2766L78.6401 68.3138C78.6401 73.8366 74.163 78.3138 68.6402 78.3139Z" fill="#4DDAA7"/>
</svg>
