<svg width="127" height="127" viewBox="0 0 127 127" fill="none" xmlns="http://www.w3.org/2000/svg">
<g opacity="0.3" filter="url(#filter0_f_636_1655)">
<path d="M34.0019 24.3086H92.0062C97.5291 24.3086 102.006 28.7858 102.006 34.3086V40.7883L85.5265 52.3242V50.7883C85.5265 45.2655 81.0493 40.7883 75.5265 40.7883H52.2923L63.6506 51.126L50.307 64.4682L24.002 40.7883V34.3086C24.002 28.7857 28.4791 24.3086 34.0019 24.3086Z" fill="#8A54FF"/>
<path d="M92.0142 102.314L34.0001 102.314C28.4772 102.314 24 97.8372 24 92.3144V85.8324L40.4818 74.2966V75.8324C40.4818 81.3552 44.959 85.8324 50.4818 85.8324H73.716L62.5204 75.5424L75.8539 62.2142L102.014 85.8324L102.014 92.3138C102.014 97.8366 97.537 102.314 92.0142 102.314Z" fill="#4DDAA7"/>
</g>
<path d="M34.6279 24.3086H92.6322C98.1551 24.3086 102.632 28.7858 102.632 34.3086V40.7883L86.1525 52.3242V46.7883C86.1525 43.4746 83.4662 40.7883 80.1525 40.7883H52.9183L64.2766 51.126L50.9329 64.4682L27.9375 43.7676C25.8308 41.8712 24.6279 39.1699 24.6279 36.3354V34.3086C24.6279 28.7857 29.1051 24.3086 34.6279 24.3086Z" fill="#8A54FF"/>
<path d="M92.6402 102.314L34.6261 102.314C29.1032 102.314 24.626 97.8372 24.626 92.3144V85.8324L41.1078 74.2966V79.8324C41.1078 83.1461 43.7941 85.8324 47.1078 85.8324H74.342L63.1464 75.5424L76.4799 62.2142L99.3413 82.8542C101.441 84.7503 102.64 87.4472 102.64 90.2766L102.64 92.3138C102.64 97.8366 98.163 102.314 92.6402 102.314Z" fill="#4DDAA7"/>
<defs>
<filter id="filter0_f_636_1655" x="0" y="0.308594" width="126.014" height="126.006" filterUnits="userSpaceOnUse" color-interpolation-filters="sRGB">
<feFlood flood-opacity="0" result="BackgroundImageFix"/>
<feBlend mode="normal" in="SourceGraphic" in2="BackgroundImageFix" result="shape"/>
<feGaussianBlur stdDeviation="12" result="effect1_foregroundBlur_636_1655"/>
</filter>
</defs>
</svg>
