<svg width="158" height="181" viewBox="0 0 158 181" fill="none" xmlns="http://www.w3.org/2000/svg">
<path opacity="0.4" d="M78.8013 90.5747V0.0398865L100.293 12.6673V102.605L23.1361 148.551L0.815964 135.693L78.8013 90.5747Z" fill="#4DDAA7"/>
<path opacity="0.7" d="M107.148 106.627V16.0919L128.64 28.7193V118.657L51.4828 164.603L29.1626 151.745L107.148 106.627Z" fill="#4DDAA7"/>
<path d="M135.692 122.984V32.4493L157.185 45.0767V135.014L80.0272 180.96L57.7071 168.102L135.692 122.984Z" fill="#4DDAA7"/>
<path opacity="0.9" d="M79.1987 90.4253V180.96L57.7065 168.333V78.3955L134.864 32.4493L157.184 45.3073L79.1987 90.4253Z" fill="#8B54FF"/>
<path opacity="0.95" d="M50.852 74.3733V164.908L29.3599 152.281V62.3435L106.517 16.3973L128.837 29.2553L50.852 74.3733Z" fill="#8B54FF"/>
<path d="M22.3076 58.0159V148.551L0.81543 135.923V45.986L77.9728 0.0398352L100.293 12.8979L22.3076 58.0159Z" fill="#8B54FF"/>
</svg>
